<svg width="460" height="461" viewBox="0 0 460 461" fill="none" xmlns="http://www.w3.org/2000/svg">
<path d="M402.54 0.299805H57.46C25.7257 0.299805 0 26.0255 0 57.7598V402.84C0 434.574 25.7257 460.3 57.46 460.3H402.54C434.274 460.3 460 434.574 460 402.84V57.7598C460 26.0255 434.274 0.299805 402.54 0.299805Z" fill="#FF570C"/>
<path d="M101.84 402.7C97.3302 402.7 92.7602 401.73 88.4102 399.69C72.6102 392.26 65.8202 373.43 73.2502 357.63L205.6 76.0702C210.82 64.9802 221.97 57.9102 234.21 57.9102C234.33 57.9102 234.45 57.9102 234.57 57.9102C246.95 58.0502 258.11 65.4101 263.12 76.7301L387.04 356.72C394.11 372.69 386.89 391.36 370.93 398.42C354.96 405.48 336.29 398.27 329.23 382.31L233.35 165.68L130.47 384.54C125.09 395.99 113.71 402.71 101.84 402.71V402.7Z" fill="white"/>
<path d="M145.45 339.05H318.52L226.63 139.26L134.9 321.95C130.96 329.8 136.67 339.05 145.45 339.05Z" fill="white"/>
<path d="M273.111 275.31C272.491 276.55 271.871 277.78 271.251 279.02C253.371 314.18 230.561 349.28 230.561 349.28C230.561 349.28 211.921 320.6 195.141 289.12C193.201 285.48 191.291 281.8 189.441 278.12C196.711 285.33 212.141 290.3 230.001 290.3C249.851 290.3 266.701 284.16 272.671 275.64C272.821 275.54 272.971 275.42 273.111 275.31Z" fill="#FF570C"/>
<path d="M233.311 253.98C233.631 260.56 234.191 271.66 234.691 281.09C266.191 278.97 291.081 252.77 291.081 220.73C291.081 188.69 263.991 160.21 230.571 160.21C197.151 160.21 170.061 187.3 170.061 220.73C170.061 254.16 194.921 278.93 226.391 281.08C226.851 271.64 227.361 260.53 227.661 253.96" fill="#FF570C"/>
</svg>
